<svg id="Layer_1" data-name="Layer 1" xmlns="http://www.w3.org/2000/svg" viewBox="0 0 1177.13 1360.36"><defs><style>.cls-1{fill:#8b8888;}.cls-2{fill:#fefefd;}.cls-3{fill:#eb1d48;}.cls-4{fill:#fff;}.cls-5{fill:#f5eb0c;}.cls-6{fill:#f27aa0;}.cls-7{fill:#4cb748;}.cls-8{fill:#070808;}.cls-9{fill:#e82128;}.cls-10{fill:#f6ea05;}</style></defs><title>4</title><path d="M522.41,1376.63c-64.66-8.15-114.2-39.36-146.41-96.57-12.26-21.77-19.23-45.47-23.42-70a313.06,313.06,0,0,1-3.57-69.78c1.59-29.26,7.27-57.62,20.71-84,14.16-27.8,34.91-49,62.93-62.92,3-1.5,3.53-3.29,3.49-6.28-.39-27.06,3-53.55,12.52-79,6.82-18.35,16.69-34.81,30.8-48.57.64-.63,1.63-1.08,1.62-2.65-30.08-11.84-58.64-26.85-84.83-46.37C385,818,374.4,826.19,364,834.66a677.92,677.92,0,0,0-52.66,47.56c-2.48,2.49-5.11,4.44-8.73,4.32a10.11,10.11,0,0,1-8.19-15.92,27.8,27.8,0,0,1,3.56-3.89c24.83-24.53,51-47.47,79.33-68,.65-.47,1.27-1,1.91-1.45-.55-1.68-2.06-2.45-3.22-3.49a277.88,277.88,0,0,1-52.32-62.76c-1.93-3.19-2-3.2-5.44-1.7a473.34,473.34,0,0,0-57.39,29.67c-1.9,1.15-3.77,2.33-6.14,2.46-4.71.25-8.69-2-10.36-6.17a10,10,0,0,1,3.32-12,41.18,41.18,0,0,1,4.05-2.55,514,514,0,0,1,56.5-29.31c3.73-1.66,3.75-1.69,2-5.37a313,313,0,0,1-24.86-77.25c-.76-4.05-.27-4.18-4.8-3.26a474.29,474.29,0,0,0-92.64,28.74c-7.14,3-13.21.29-15-6.7-1.2-4.64,1.11-9.37,6.15-11.59,6.57-2.89,13.24-5.58,20-8.1a480,480,0,0,1,78.15-22.35,9.18,9.18,0,0,1,1.39-.36c2.51,0,3.11-1.22,2.79-3.67-1.51-11.74-2.11-23.55-2.64-35.37-.61-13.49.89-26.83,2.35-40.17,1.75-16,3.8-32,6.34-48,4.61-29,10.06-57.88,19.59-85.79a8.32,8.32,0,0,0,.06-5.55,531.09,531.09,0,0,1-17.4-75.52C286,288,283.85,264.55,284.71,241c.8-22.13,3.77-43.9,12.18-64.63,7.64-18.82,19.11-34.58,36.23-45.94a19,19,0,0,1,8.36-3.24,254.76,254.76,0,0,1,40.68-1.65c51,2.17,99.6,14.9,146.8,33.63a11.51,11.51,0,0,0,9.08.14c30.53-11.57,62-19.8,94.07-25.7a509.64,509.64,0,0,1,90-8.74c.79,0,1.59-.09,2.59-.16-.69-3.85-1.56-7.57-2-11.33-2.63-23.13,1-45,14.28-64.51,11.21-16.5,27.12-25.65,46.84-28.55,21.06-3.1,39.47,2.83,55.92,15.8,13.88,11,24.5,24.68,33.8,39.54,2.52,4,4.88,8.15,7.33,12.25,2-.83,3.2-2.41,4.63-3.64,19.8-17.1,41.58-30.71,66.85-38.25A129.91,129.91,0,0,1,996,40.68a3.7,3.7,0,0,1,.95.07c6.52,2.25,11.23-.65,16.32-4.58a91.24,91.24,0,0,1,48.46-18.77c5.53-.66,11.09-.12,16.63-.3,16.77-.38,29.36,7.67,39.45,20.17,12,14.85,18.56,32.37,23.86,50.41,9.76,33.25,14.92,67.4,19.41,101.66,3,22.82,5.3,45.71,7.4,68.62,1.25,13.68,2.52,27.36,3.18,41.08a25.76,25.76,0,0,0,4.27,13.5c19.16,28.7,32.57,60.07,42.6,93a391.07,391.07,0,0,1,10.57,43.31c.62,3.38,1.94,4.63,5.48,4a340.45,340.45,0,0,1,72-5.65,292.88,292.88,0,0,1,34.35,3c4.62.68,8.1,2.77,8.79,7.89v7.68c-2.39,6-5.68,7.74-13.4,6.88s-15.58-1.37-23.38-1.93a246.87,246.87,0,0,0-34,0,359.92,359.92,0,0,0-36.65,4.05l-1.42.23c-7.57,1.32-7.73,1.54-6.7,9.37,2.9,22.09,2.86,44.3,2.52,66.52,0,3.5-.89,6.95-.92,10.49s1.24,5,4.79,4.87c4.79-.15,9.59,0,14.39,0a475.46,475.46,0,0,1,67.32,5c4.62.64,9.27,1.32,11.7,6.24,1.89,3.85,2.32,7.69-.09,11.41-2.55,3.91-6.22,6.13-11,5.48-11.88-1.63-23.77-3-35.73-3.84-16.74-1.21-33.49-1.83-50.27-1.59-3.35,0-4.38,2-4.81,4.78a359.27,359.27,0,0,1-11.68,49.93c-2.54,8.43-5.78,16.61-9,24.81-1.89,4.88-1.83,5.09,3.36,6.51,24.29,6.62,47.91,15,70.23,26.76,6.37,3.35,12.89,6.52,18.36,11.27,6.71,5.84,5.29,15.26-2.7,18.86-4.23,1.91-8.13.76-11.83-1.55A249.21,249.21,0,0,0,1253.06,712a382.44,382.44,0,0,0-49.6-16.39c-3.75-1-5.12,1-6.6,3.76a296,296,0,0,1-40,57.31,325.3,325.3,0,0,1-56.87,50.5,403.4,403.4,0,0,1-56.74,33,21.75,21.75,0,0,0-4.7,2.62c3.52,1.82,6.9,3.39,10,5.38,26.09,16.59,41.12,40.92,49.25,70.13,6.41,23,6.35,46.45,5,70-.23,3.73,1.48,5.63,4.06,7.43,18.49,12.88,32.5,29.76,43.36,49.27,15.26,27.42,24.34,57,28.94,87.92,1.74,11.69,3.61,23.44,2.8,35.3a315.08,315.08,0,0,1-12.7,70.14c-9.16,30.32-22.37,58.56-42.89,82.92-25.76,30.56-58.22,49.48-98.09,54.91a90.64,90.64,0,0,1-15.29.75H991.74c-33.89.34-62.6-12.11-87-35.25a93.49,93.49,0,0,1-8.19-9.39,27.52,27.52,0,0,0-10.73-7.77,320.48,320.48,0,0,0-84.4-24.82c-22.89-3.3-45.86-3.36-68.85-1.71a301,301,0,0,0-77.67,16.36c-.91.31-1.81.65-2.72.93-7.85,2.35-13.78,6.67-19,13.48-20.06,26.3-46.76,42.12-79.54,47.32a77.8,77.8,0,0,1-14.8.84C533.4,1376.74,527.89,1377.27,522.41,1376.63Z" transform="translate(-172.58 -16.61)"/><path class="cls-1" d="M1079.09,16.61a1.76,1.76,0,0,0,.09.85l-17.49-.06a1.43,1.43,0,0,1,.13-.79Z" transform="translate(-172.58 -16.61)"/><path class="cls-2" d="M746.71,175.1c-7.16,1.23-13.62,2.16-20,3.7-16.14,3.92-31.33,10-44.54,20.27-18.65,14.53-28.84,33.69-31.25,57.17-1.31,12.76-.53,25.26,4.13,37.27,7.32,18.9,21.51,30.52,40.32,36.86,16.31,5.49,33.17,6.45,50.2,5.42A259.29,259.29,0,0,0,784,330.58a29.86,29.86,0,0,1,3.1-.33c.41,5.44.73,10.82,1.25,16.19,1.44,14.85,4.39,29.36,10.55,43.06,7,15.62,17.3,28.38,33.12,35.8,25.72,12.08,60.93,8.62,83.75-20.87,10.14-13.09,16.48-28,21.07-43.75A221.1,221.1,0,0,0,944,326c.11-.93.31-1.86.46-2.74,1.55-.82,2.57.32,3.62.79,16.28,7.26,33.11,12.69,50.88,14.59,19.23,2.07,38.12.65,55.48-8.74,26-14.07,38.18-36.35,37-65.76-.41-10-4-19.3-9.21-27.94-7.68-12.82-18.16-23.05-29.78-32.21a231.4,231.4,0,0,0-29.59-19.49c-1.37-.77-2.72-1.57-4.07-2.36.47-2,2-3.06,3-4.4,13-16.32,22.89-34.21,28-54.57,3.4-13.68,4.25-27.45.54-41.23a52.73,52.73,0,0,0-19.68-29.26l-1.9-1.45a2.65,2.65,0,0,1-.36-.48c.65-1.32,2.05-1.79,3.2-2.48a73.28,73.28,0,0,1,45.87-10.51,32.5,32.5,0,0,1,22.66,12.06c7.18,8.58,11.74,18.58,15.64,28.93,6.49,17.23,10.71,35.09,14.25,53.11,5.65,28.85,9.51,58,12.68,87.2,2.59,23.84,4.9,47.69,6.62,71.6.55,7.65,1.28,15.29,1.81,22.94a6.82,6.82,0,0,0,1.51,3.89c16.69,22,28.15,46.68,37.78,72.33a391.83,391.83,0,0,1,18,65.95c.76,4,.75,4-3.28,5.13a312.78,312.78,0,0,0-67.87,27.05,57.68,57.68,0,0,0-5.36,3.18c-4.84,3.37-6,9-2.94,13.9a9.8,9.8,0,0,0,13.44,3.3c5.72-3.19,11.44-6.36,17.36-9.17a306,306,0,0,1,49.75-18.45,2.81,2.81,0,0,1,2.6,0c1.08,8.3,1.84,16.86,2.35,25.44a404.66,404.66,0,0,1,0,51.77c-.22,3.18.3,7-1.26,9.35-1.76,2.69-5.87,1-8.94,1.28-15.12,1.31-30.3,2.16-45.3,4.6-7.38,1.21-10.84,8.58-7.29,14.91,2.15,3.82,6.15,5.6,11,4.9,15-2.13,30.18-3.25,45.32-4.3.78-.06,1.56,0,2.72,0,0,5-1.29,9.59-2.19,14.19a315.23,315.23,0,0,1-19.2,62.6c-1.92,4.52-2,4.58-6.5,3.66-14.26-2.89-28.67-4.78-43.12-6.35a44,44,0,0,0-5.26-.24,10,10,0,0,0-10.15,9.43,10.09,10.09,0,0,0,9.46,10.64c8.12.74,16.22,1.58,24.27,2.86l19.37,3.08c.11,2.12-1.16,3.47-2,5-22.47,39.87-53.18,72.11-90.72,98-33.8,23.32-70.8,39.94-109.78,52.4-6.08,1.95-12.22,3.67-18.32,5.56-2.14.66-3.41.46-4.11-2.11-6.56-24.16-26.44-39.75-55-40.89a74,74,0,0,0-24.06,3.46l-4.82,1.42c-.87-3.36-1.61-6.58-2.53-9.74-2.81-9.62-6.88-18.57-14.1-25.78-9.23-9.24-20.43-12.61-33.27-11.18-14.86,1.67-27.31,8.4-38.31,18.17a108.17,108.17,0,0,0-16,17.85c-1.18,1.64-1.95,2.38-4.15,1.18-23.24-12.66-45.68-10.17-67.46,3.8-2,1.28-3.72,3.83-5.95,3.64-1.93-.17-3.68-2.3-5.51-3.55-11.34-7.72-24-10.27-37.44-9.08-22.93,2-40.21,12.72-49.93,34.11-4.63,10.17-5.11,21-4,32,.06.59.19,1.18.41,2.6-63.12-11.08-122.7-29.76-176-66.83,16.88-10.08,33.66-18.73,52.48-22.75a21.74,21.74,0,0,0,3.69-1,10,10,0,0,0,5.89-11.36,9.72,9.72,0,0,0-9.51-7.93c-4.52,0-8.8,1.44-13.1,2.65-18.77,5.28-35.77,14.39-52.32,24.44a24.23,24.23,0,0,0-2.4,1.58c-1.4,1.06-2.47.66-3.71-.4-21.24-18-39.45-38.69-53.84-62.62a5.83,5.83,0,0,1-.18-.75,185.87,185.87,0,0,1,27.83-8c9.41-2,18.91-3.21,28.56-2.6a10.06,10.06,0,0,0,10.9-9.63c.11-5.83-3.72-10.12-10.06-10.59a109.36,109.36,0,0,0-23.42,1.23,215.33,215.33,0,0,0-40.75,10.43c-2.28.8-3.62,1-4.87-1.59a293.64,293.64,0,0,1-24.68-77.25c0-.14.07-.31.19-.79,7.59-1.13,15.34-1.9,23.12-2.33a248.55,248.55,0,0,1,42.61,1c5.23.61,10.41,1.7,15.65,2.22,6.84.69,11.85-4.44,11.19-11.09a9.51,9.51,0,0,0-7.81-8.58,149,149,0,0,0-15.12-2.52,295.68,295.68,0,0,0-66.49.48c-7.55.86-6.45,2.1-7.3-5.72s-1.18-15.62-1.78-23.43c-1.09-14.27.4-28.42,2-42.56,2-18.1,4.31-36.16,7.31-54.13,4.67-27.88,10-55.59,20-82.2,4.16-11.16,10.12-21.31,16.68-31.17.89-1.32,1.89-2.59,2.65-4a10.06,10.06,0,0,0-16.72-11.12c-2.72,3.54-5,7.41-7.49,11.13l-2.2,3.35c-1.69-2.09-1.73-4.56-2.29-6.78a502.8,502.8,0,0,1-11.27-59.73c-2.63-21.3-3.88-42.68-2.14-64.12,1.46-17.91,4.75-35.45,12.52-51.86,5.34-11.3,12.64-21.06,22.75-28.59a14.33,14.33,0,0,1,7.38-2.92c19-2,38-1.3,56.92.8,42.87,4.77,83.74,17,123.47,33.31a11.77,11.77,0,0,0,9.9,0c23.53-9.66,47.92-16.61,72.67-22.34a534,534,0,0,1,68.49-11.24,473.86,473.86,0,0,1,48.84-2.32c2.68,0,3.93.84,4.91,3.29C737.14,157.42,741.88,165.93,746.71,175.1Z" transform="translate(-172.58 -16.61)"/><path class="cls-3" d="M926.54,290.43c-.31,5-.56,10.1-.94,15.17-1.71,22.71-5.33,45-14.28,66.18a81.66,81.66,0,0,1-17.86,27c-18.38,18.05-53.8,17.64-70.12-7.11-6.92-10.49-10.71-22.09-12.89-34.28a179.29,179.29,0,0,1-2.19-47.74,14.34,14.34,0,0,0-.13-5.79c-7.92,2-15.77,4.06-23.69,5.83-17.5,3.92-35.2,6.47-53.18,6.08-10.73-.23-21.34-1.56-31.48-5.42-14.07-5.35-24.28-14.71-27.34-29.7-5.71-27.86,3-56.09,32.06-71.92,12.51-6.82,26-10.5,40-12.67a193.09,193.09,0,0,1,34.9-1.92c.77,0,1.55,0,2.56,0-.15-2.13-1.53-3.36-2.45-4.76-11.72-17.78-22.4-36.11-30.19-56-4.7-12-8-24.26-6.91-37.35.92-10.6,3.23-20.77,8.13-30.31,13.12-25.54,46.14-32.64,68.61-19,11.57,7,20.66,16.55,28.64,27.27,10.16,13.65,18.14,28.56,25.07,44.07.76,1.71,1.24,3.57,2.58,5.1,1.74-.56,2.44-2.09,3.45-3.25,16.74-19,35.91-35,58.78-46.25,17.31-8.49,35.55-13.29,55-12.67a56.67,56.67,0,0,1,14.59,2.48c14.72,4.46,23.88,16.47,24.92,32.84.88,13.92-2.63,26.93-8.28,39.46-8.49,18.8-20.89,34.69-36.32,48.3-1.18,1-2.66,1.77-3.55,3.6,1.6,1.49,3.75,2.07,5.69,2.95,17.95,8.16,35.08,17.71,50.65,29.89a109.27,109.27,0,0,1,19.46,19.1c5,6.52,9,13.59,10.65,21.76,3.2,15.9-3.21,36.26-20.24,47.47-10,6.61-21.15,9.56-33,10.16-17.39.88-34-3-50.09-9.05A232.18,232.18,0,0,1,930.6,292C929.41,291.28,928.42,290,926.54,290.43Z" transform="translate(-172.58 -16.61)"/><path class="cls-4" d="M1033.17,996.28a100.21,100.21,0,0,1,38.28,5.39c19.62,6.9,35.1,19.35,47.72,35.6,14,18,23.14,38.51,29.79,60.16a250.84,250.84,0,0,1,11.2,62.06,142.22,142.22,0,0,1-1.58,25.33c-3.5,26.56-10.09,52.31-20.93,76.87-10.1,22.9-23.42,43.61-42.16,60.48a129.69,129.69,0,0,1-67.78,32.27c-20.75,3.3-41.44,3.18-61.82-2.22-30.59-8.11-52.24-27.19-66.37-55.19-8.58-17-13.44-35.12-16.17-53.86a257.3,257.3,0,0,1-2-55.47c.2-2.82.77-4.33,3.86-5.44,13.26-4.75,20.22-15,23-28.33,2.5-11.76,1.46-23.53-.34-35.27-.54-3.46-2.4-7.31-1.42-10.23.91-2.75,5.48-3.24,8.31-5,18.07-11,28.25-27.21,31.89-47.83a90.37,90.37,0,0,0,.75-22.46c-.19-2.61.73-3.23,2.94-3.63a77.83,77.83,0,0,0,21.27-7.07,59.72,59.72,0,0,0,23.83-21,6.94,6.94,0,0,1,5.74-3.4A257.17,257.17,0,0,1,1033.17,996.28Z" transform="translate(-172.58 -16.61)"/><path class="cls-4" d="M541.76,999.58a103.16,103.16,0,0,0-5,16.45c-4.92,25.69,9.59,44.45,33.46,49.43a81.07,81.07,0,0,0,24,1.46c.63,4.23.47,8.37,1.11,12.46,3,18.83,12.32,33,29.88,41.12,2.43,1.13,2.68,2.25,2.09,4.68-3.19,13.36-4,26.83-1.11,40.37,2.73,12.76,9,23.13,20.58,29.77A3.71,3.71,0,0,1,649,1199c-.65,27.44-3.55,54.5-13.11,80.47-6.6,17.92-16,34.09-29.81,47.45-16.53,16-36.38,25-59,28.44-24.52,3.67-47.72-1.68-70.11-11-50.89-21.15-82.93-59.16-98.43-111.61a245,245,0,0,1-9.3-57.08c-1.19-23.22-.29-46.33,4.49-69.17a160.32,160.32,0,0,1,15.87-44.46c16.75-30.65,42.33-50.24,75.68-59.8a163.64,163.64,0,0,1,71.65-4q1.42.23,2.82.57C540.39,999,541,999.29,541.76,999.58Z" transform="translate(-172.58 -16.61)"/><path class="cls-5" d="M922.1,1010.89c1,3.69,2,7.18,2.86,10.7,2.74,11.15,3.62,22.37,1.1,33.7-7.28,32.65-40.65,44.67-66.94,31.94-10.33-5-18.3-12.71-24.74-22.12-1.19-1.75-1.22-3.49-1.12-5.45a76.35,76.35,0,0,0-2.73-26.09c-5.13-16.88-16.58-26.8-33.69-30.4-7.74-1.63-15.57-1.6-23.4-1.09-3,.2-3.75.24-4.5-3.23a58.42,58.42,0,0,0-8.44-20.21c-1.38-2.08-1-3.31.57-4.92a123.18,123.18,0,0,1,17.39-15c1.29-.91,2.55-1.86,4.08-3a59.31,59.31,0,0,1-16-12.61c-8.73-9.93-13.85-21.44-14.49-34.68-1.06-21.91,13.67-41.5,35.2-47.28,12.19-3.28,23.73-1.41,34.79,4.34a70.6,70.6,0,0,1,17.72,13.57c1.63-.69,1-2,1.07-3,1.49-22.33,13.11-37.08,33.67-45.14,11.48-4.5,23.17-5.84,35.15-2.11,14.38,4.48,21.91,14.8,24.5,29.11,2.45,13.46.71,26.75-2.39,39.9-1.1,4.64-2.49,9.22-3.81,14.07,4.16,0,8.12,0,12.07,0A53.68,53.68,0,0,1,960.14,916c11.62,4.76,19.44,13.16,23.23,25.18a65.76,65.76,0,0,1,1.17,35c-3.38,14.63-12.45,24.53-26.34,30.05a66.25,66.25,0,0,1-23.85,4.66C930.37,1010.93,926.39,1010.89,922.1,1010.89Z" transform="translate(-172.58 -16.61)"/><path class="cls-3" d="M714.06,1155.35c-3,5-5.43,9.27-8.78,13-9.84,10.84-22.32,14.26-36.46,12.88a42.14,42.14,0,0,1-6.56-1.33c-7.57-2-12.42-6.92-15-14.19a51.65,51.65,0,0,1-2.51-19.38,80,80,0,0,1,11.38-38.65,12.21,12.21,0,0,0,.63-1.67c-4.58-.42-9-.15-13.33-.94-16.11-2.93-25.53-12.69-28-29a50.12,50.12,0,0,1,1.46-22.75c2.93-9.45,9.21-15.93,18.45-19.45a56.43,56.43,0,0,1,25-3.25c3.65.3,7.28.91,10.93,1.34,3.43.41,3.57.39,3.61-3.05a82.63,82.63,0,0,1,5.33-29.54c3.66-9.34,9.21-17.14,18.65-21.57,19-8.91,40.8-.27,48.28,19.23a61.55,61.55,0,0,1,4,23.47c-.09,4.77,0,4.72,4.48,4.08,9.81-1.39,19.63-2.66,29.59-2.29a44.81,44.81,0,0,1,9.47,1.29c10.38,2.65,15.7,9.88,17.48,20a54.18,54.18,0,0,1-.28,22.36c-3.55,14.7-12.84,24.68-25.83,31.64-2.23,1.2-4.57,2.22-7.1,3.44.26,1.87,1.67,3,2.58,4.44,5.71,8.73,11,17.71,13.06,28.06,4.55,22.41-12.46,49.65-43.08,44.79-12.81-2-23.15-8.8-32.39-17.48C717.39,1159.22,716,1157.47,714.06,1155.35Z" transform="translate(-172.58 -16.61)"/><path class="cls-4" d="M750.14,955.32a4.7,4.7,0,0,1-.55,1c-1.79,1.82-3.32,4.39-5.49,5.18s-4.2-1.68-6.37-2.59c-24.88-10.41-60.85-5.73-76.11,31.79-2,4.87-3.18,10-4.9,15.13-5.22-2.38-7.73-6.05-7.55-11.72.2-6.52,0-13,0-19.9a107.39,107.39,0,0,1-24.77,2.13,59.11,59.11,0,0,1-17.4-2.93c-14.16-4.69-21.89-15.26-22.23-30.12a64.89,64.89,0,0,1,2.07-19c4.56-16.5,17.84-27,34.91-27.8l3-.15c.61-1.9-1-2.87-1.8-4.08A81.19,81.19,0,0,1,610.29,861c-3.91-23.46,11.28-42.54,35-44.24,15.27-1.1,27.05,4.54,35.72,17l3.51,5.05c2.91-2.53,5.89-5,8.68-7.57a72.17,72.17,0,0,1,17.9-12.71c18.65-9,38.69-4.47,51.55,11.77A64.4,64.4,0,0,1,770,842.68c.93,1.93.85,3-1.33,4.06A61.16,61.16,0,0,0,753,857.64c-20.9,19.78-26.93,48.46-16,75.69A86.15,86.15,0,0,0,750.14,955.32Z" transform="translate(-172.58 -16.61)"/><path class="cls-6" d="M812.76,1159.36c8.61,5.85,16.87,11.28,25.76,15.68a87.87,87.87,0,0,0,19.63,7.47c2.66.59,3.3,1.77,3,4.28a170.19,170.19,0,0,0-.79,21.54c.4,29.94,4.61,59.17,16,87.08a8.77,8.77,0,0,1,.22,1.67,333.31,333.31,0,0,0-73-19,328.61,328.61,0,0,0-76-1.62,348.93,348.93,0,0,0-74,15.32c-.23-1.85.64-3,1.11-4.3a235.63,235.63,0,0,0,12.74-57.33q1.29-12.65,1.65-25.34c.08-2.56.93-3.22,3.36-3.1a61.5,61.5,0,0,0,25.8-4.24,51.47,51.47,0,0,0,16.27-9.92c1.93-1.77,3.2-1.67,5.26-.33a74.23,74.23,0,0,0,27.83,11.07c27.11,4.81,52.85-9.13,63.33-34.51C811.53,1162.47,812.05,1161.14,812.76,1159.36Z" transform="translate(-172.58 -16.61)"/><path class="cls-4" d="M456.24,983.19c.88-32.43,5.52-63.57,23.06-91.46a98.65,98.65,0,0,1,22.05-24.46,6.12,6.12,0,0,1,6.48-1.16,537.83,537.83,0,0,0,79.47,19.15c.77.13,1.61.12,2.14.9-.1,1.13-1.17,1.39-1.86,1.93-12.51,9.71-19.36,22.69-21.85,38.09-1.91,11.79-2.07,23.55,1.92,35a3.28,3.28,0,0,1-.88,3.84,149,149,0,0,0-12.61,14.43,3,3,0,0,1-3.62,1.26c-30.14-7.69-60.12-6.07-90,1.74-.92.24-1.85.49-2.78.7A11.4,11.4,0,0,1,456.24,983.19Z" transform="translate(-172.58 -16.61)"/><path class="cls-4" d="M1080.62,983.33c-24.17-9.53-49.67-7.94-75.34-6.17a103.83,103.83,0,0,0,0-31.87c-4.18-26-21.64-45.11-47.27-51.4-.93-.23-1.89-.34-2.81-.59a1.62,1.62,0,0,1-1.33-2.11,113.77,113.77,0,0,0,1.63-18.6c0-2.26,1.71-2.37,3.21-2.82q12.82-3.84,25.66-7.69a39.31,39.31,0,0,0,5.9-2c8.41-4.09,17.05-3.13,25.78-1.46,19,3.61,33,14.54,44.28,29.66,9.81,13.2,15.37,28.25,18.62,44.21,3.21,15.76,3.58,31.73,2.78,47.74C1081.71,981.15,1082,982.18,1080.62,983.33Z" transform="translate(-172.58 -16.61)"/><path class="cls-7" d="M825.53,1086.91c1.93,1.9,3.36,3.37,4.85,4.77,14.32,13.5,31.12,21,51,20.82,5.69,0,4.41-.32,5.46,4.42a99.86,99.86,0,0,1,2.36,26.66,36.57,36.57,0,0,1-1.29,8c-2.61,9.45-9.51,13.82-19.22,12.36a70.38,70.38,0,0,1-21.21-7.24c-10.61-5.35-20.34-12-29.8-19.17a5.31,5.31,0,0,1-2.5-3.84c-.86-7.88-3.56-15.22-6.88-22.33-.92-2-1.28-3.28.76-4.91A67.8,67.8,0,0,0,825.53,1086.91Z" transform="translate(-172.58 -16.61)"/><path class="cls-7" d="M633.64,1012.49c-2.67,1.07-5.19,2-7.66,3.09-12.56,5.48-21.77,14.35-26.9,27.14-1,2.57-2.28,3.6-5.15,3.79a68.37,68.37,0,0,1-20-1.09,35.69,35.69,0,0,1-3.67-1c-10.87-3.71-15.9-12.25-13.78-23.55a61.92,61.92,0,0,1,10.45-24.46,151.61,151.61,0,0,1,11.2-13.72c1.05-1.18,1.92-1.89,3.52-.51,12.1,10.4,26.58,14,42.11,14.47a17.58,17.58,0,0,0,1.92,0c2.34-.22,3.34.58,3.5,3.17C629.48,1004.3,631.43,1008.37,633.64,1012.49Z" transform="translate(-172.58 -16.61)"/><path class="cls-7" d="M848.87,819.16a3.11,3.11,0,0,1-1.43,3.63,64.33,64.33,0,0,0-18,20.82c-1.28,2.36-2.7,1.47-4.3.79a71.13,71.13,0,0,0-27-5.33c-2.51,0-5.45,1.63-7.37,0-1.64-1.41-2.08-4.2-3-6.39a68,68,0,0,0-8.31-13.94c-1-1.3-1.27-2.32-.21-3.8,7.7-10.74,16.39-20.39,28.53-26.32a40.4,40.4,0,0,1,14.69-3.93c7.26-.58,13,2.26,17.39,8.09s6.46,12.75,8,19.78C848.3,814.84,849.14,817.13,848.87,819.16Z" transform="translate(-172.58 -16.61)"/><path class="cls-8" d="M1039.87,583.14a59.22,59.22,0,0,1-7.52,29.79,42,42,0,0,1-11.85,13.62c-11.41,8.28-25.18,8.2-36.46-.26a43.81,43.81,0,0,1-14.56-19.78c-6.81-17.62-6.12-35,2.25-51.89A41,41,0,0,1,983.79,540c12.1-9.2,27.68-8.59,39.1,1.5,8.88,7.83,13.55,17.93,15.88,29.31A65.15,65.15,0,0,1,1039.87,583.14Z" transform="translate(-172.58 -16.61)"/><path class="cls-8" d="M488.55,635.18c-.06-12.63,2.19-22.64,7.31-31.94A43.69,43.69,0,0,1,504.7,592c12-10.91,28.39-10.79,40.2.35,7.83,7.38,12.19,16.63,14.41,27a63.2,63.2,0,0,1-4.08,39.78,44.5,44.5,0,0,1-10.5,14.72c-11.7,10.87-28,11-39.85.31-8.15-7.35-12.54-16.76-14.94-27.25A60.81,60.81,0,0,1,488.55,635.18Z" transform="translate(-172.58 -16.61)"/><path d="M778,729.61c-15.5-.24-29.67-4.33-41.35-15-8.29-7.55-13-16.83-12.65-28.36.36-10.38,5-18.7,12.32-25.63,8-7.55,17.68-11.91,28.41-14,16.14-3.11,31.46-.93,45.85,7.15a47.55,47.55,0,0,1,10.91,8.55c14.11,14.58,14.26,35.25.31,49.95-8.69,9.17-19.61,14.09-31.86,16.29A48.25,48.25,0,0,1,778,729.61Z" transform="translate(-172.58 -16.61)"/><path d="M868.22,160.58c25.54-.51,51.33,20.43,51.45,51.56a51.68,51.68,0,0,1-103.35,0C816.44,181.22,842,159.93,868.22,160.58Z" transform="translate(-172.58 -16.61)"/><path class="cls-9" d="M826.57,961.25c-.71-15.81,12.37-34.19,34.28-34.49a34.59,34.59,0,0,1,34.84,34.57c0,18.08-14.08,34.75-34.67,34.69C838.78,996,825.72,977.22,826.57,961.25Z" transform="translate(-172.58 -16.61)"/><path class="cls-5" d="M712.82,1114.78c-10.14-.32-20-5.15-26.1-16.3a26.88,26.88,0,0,1,4.36-31.47,33.46,33.46,0,0,1,45.89-2.08,27.69,27.69,0,0,1-.7,42.42C730.38,1112.28,723.29,1114.76,712.82,1114.78Z" transform="translate(-172.58 -16.61)"/><path class="cls-10" d="M688.33,945.83a29.06,29.06,0,0,1-22.23-9.42,24.27,24.27,0,0,1-.2-33.06c11-12.09,31.17-13.05,43.24-2.05,13.59,12.37,10.36,33-6.47,41.4A29.93,29.93,0,0,1,688.33,945.83Z" transform="translate(-172.58 -16.61)"/><path class="cls-5" d="M777.28,709.36c-8.32-.28-16.65-2.15-23.94-7.34-12.21-8.69-12.09-20.72.24-29.26,13.52-9.35,35-9.46,48.55-.24,12.92,8.77,12.84,21.54-.26,30.11C794.56,707.41,786.4,709.27,777.28,709.36Z" transform="translate(-172.58 -16.61)"/><path class="cls-5" d="M868,243.4A31.31,31.31,0,1,1,899.35,212,31.44,31.44,0,0,1,868,243.4Z" transform="translate(-172.58 -16.61)"/></svg>