<svg id="Layer_1" data-name="Layer 1" xmlns="http://www.w3.org/2000/svg" viewBox="0 0 1257.66 1264.52"><defs><style>.cls-1{fill:#ea3c93;}.cls-2{fill:#fff;}.cls-3{fill:#fdfeff;}.cls-4{fill:#010101;}.cls-5{fill:#080b0b;}.cls-6{fill:#ea3c94;}.cls-7{fill:#e32133;}.cls-8{fill:#08090a;}.cls-9{fill:#020202;}</style></defs><title>8</title><path class="cls-1" d="M104.27,689.92c1.82-6.29,1.23-12.83,1.72-19.24a626.49,626.49,0,0,1,33.06-159.1Q183.09,385,274.62,287q114.33-122,274-171.84a604.91,604.91,0,0,1,115-23.76c13.72-1.49,27.45-2.76,41.26-3.12,1.6-.05,3.36.29,4.83-.79h49c7,1.89,14.16,1.21,21.24,1.74a625.07,625.07,0,0,1,388.32,174.22Q1279.48,371.07,1329,517.68a615,615,0,0,1,28.19,125.7,638.14,638.14,0,0,1,4.42,94.63c-2.85,90.26-23.37,176.26-62.68,257.65a624,624,0,0,1-139.86,189.05q-130.9,120.75-305.73,155.68a624.89,624.89,0,0,1-96,11.11,618.58,618.58,0,0,1-226.16-32.72q-129.9-44.21-229.46-138.85-116.1-110.17-166.26-262.22a607.2,607.2,0,0,1-27.41-126.89c-1.32-12.4-2.56-24.81-3-37.28,0-1,.23-2-.84-2.68Z" transform="translate(-104.27 -87.5)"/><path class="cls-2" d="M124.32,719.77c.3-94.75,20.16-185.14,62.58-270Q296.18,231.25,525.08,144.55c43.23-16.33,88-26.71,133.89-32.25,30.11-3.63,60.3-5.46,90.6-4.39,142.87,5,269.2,53.39,378,146.22,86.28,73.61,146.92,164.83,183,272.31a595.38,595.38,0,0,1,28.66,139.28c1.69,19.74,2.67,39.5,2.44,59.29-1.06,90.92-20.67,177.61-60,259.7a605.06,605.06,0,0,1-112,161.1Q1046.8,1272.57,875.37,1315a590.13,590.13,0,0,1-128.3,16.58q-142.34,3.23-271.2-57A598.35,598.35,0,0,1,320.6,1169.75q-120.36-112.1-169.24-269.22A590.61,590.61,0,0,1,128.15,788,611.74,611.74,0,0,1,124.32,719.77Z" transform="translate(-104.27 -87.5)"/><path class="cls-1" d="M140.93,720.73c.93-142.11,44.91-269.24,135.09-379.27,85.72-104.59,195.24-172,327.13-202.59a565,565,0,0,1,106.14-13.81c103.72-4,201.87,17.39,294,65.07,97.27,50.32,174.65,122.45,232.55,215.36,41.11,65.95,67.77,137.48,80.87,214a581.33,581.33,0,0,1,7.72,74.86c4.34,109.1-18.29,212.25-70.51,308.15q-106.68,196-315.77,275.76c-41.3,15.75-84.05,26-127.85,31.79a555.69,555.69,0,0,1-85.6,5c-145.4-3.36-273.42-52.28-382.68-148.38-84-73.91-142.13-165-175.17-272A579.16,579.16,0,0,1,143,769.15C141.7,753,140.88,736.94,140.93,720.73Z" transform="translate(-104.27 -87.5)"/><path class="cls-2" d="M512.09,1085.89c-5.17-2.81-11.12-2.64-16.62-4.27-8.3-2.47-16.47-5.26-24-9.5-2.34-1.31-4-1.36-6.28.11-6.29,4-12.84,7.69-19.14,11.73-2.56,1.64-3.43,1.14-4.51-1.58a64,64,0,0,0-16.21-24.27c-12.7-11.59-27.29-13.32-42.69-7.09-14.6,5.91-20,18.47-20.35,33.21-.71,27,14.44,43.48,41.77,46.27,6.26.63,6.26.63,3.23,6.39-3.32,6.32-6.76,12.59-9.92,19-1.16,2.36-2.51,3.21-5.06,2.57-22.51-5.64-43.32-14.66-58.7-32.74a71.81,71.81,0,0,1,39.05-117.11c22.28-5.05,42.85-.41,62.31,10.77l3.42,1.94c.49-4.47.92-8.64,1.42-12.8.19-1.61-1-2.37-1.87-3.31A414,414,0,0,1,341.82,598a404.34,404.34,0,0,1,81.74-147.73c50.78-58.58,113.07-100,187.07-123.36,48.57-15.37,98.33-21,149.17-17.77a402.44,402.44,0,0,1,150,39.29A411.62,411.62,0,0,1,1139,665.68c1,7.74,1.65,15.54,2.26,23.33a18,18,0,0,0,2.06,7.09c3.53,6.78,7,13.58,10.4,20.44,4.51,9.21.89,17.86-8.86,21-4.78,1.53-7.3,3.75-7.66,9.51-2.27,36.34-5.09,72.65-7.67,109q-2.25,31.59-4.31,63.2c-.56,8.59-2,16.81-7.31,23.94a32.16,32.16,0,0,1-24,13.45c-8.11.7-16.22,1.51-24.35,2-2.75.16-4.08,1.63-5.5,3.58a409.4,409.4,0,0,1-86.14,87.56c-54.71,40.9-115.74,66.86-183.35,77q-126.22,18.85-241.11-36.93a20.12,20.12,0,0,0-8.57-2.16c-6.65-.14-13.28-.78-19.93-1-1.61-.05-3.65-1.31-4.93.89C517.41,1086.62,514.25,1088.66,512.09,1085.89Z" transform="translate(-104.27 -87.5)"/><path class="cls-3" d="M530.87,341.06c-.29,1.61-1.47,2.08-2.35,2.75-12.23,9.2-24.54,18.29-36.68,27.6-2.58,2-3.91,1.82-5.95-.7-10-12.26-20.19-24.3-30.14-36.57-1.88-2.32-3-2.8-5.38-.73-5.62,4.94-11.35,9.76-17.25,14.37-2.39,1.87-2.55,3.2-.77,5.63,8.16,11.13,16.08,22.44,24.23,33.58,1.71,2.35,1.8,3.75-.57,5.73q-17.81,14.86-35.31,30.08c-3.25,2.85-3.92-.1-5.13-1.71q-23.91-32-47.72-64c-12.22-16.41-24.36-32.88-36.75-49.15-2.33-3.06-2-4.4,1-6.56q16.77-12.17,33.13-24.86c2.79-2.17,4.18-1.79,6.32.71,8.73,10.26,17.8,20.22,26.43,30.55,2.71,3.26,4.42,3.07,7.39.5,6.41-5.55,13-10.91,19.79-16,2.92-2.18,2.63-3.69.78-6.33-7.17-10.2-14-20.62-21.22-30.81-1.84-2.6-1.89-4,.91-5.85,11.78-7.8,23.54-15.65,35.09-23.8,3.4-2.4,4.47-.44,6.11,1.78q33.79,45.75,67.64,91.46,7.41,10,14.81,20.07C529.88,339.6,530.42,340.42,530.87,341.06Z" transform="translate(-104.27 -87.5)"/><path class="cls-3" d="M948.68,318.51c2-32.06,14.3-56.79,43.28-70.55,23.12-11,47-9.43,70.26-.21,36.28,14.39,52.8,49.16,41.68,88.72-9.38,33.37-30.77,55.67-65.85,60.91-42.35,6.32-84.37-20.57-88.7-67.52C949,325.73,948.85,321.57,948.68,318.51Z" transform="translate(-104.27 -87.5)"/><path class="cls-3" d="M662.7,299.12c.22,2.95-2.17,2.72-3.71,3.17q-26.73,8-53.5,15.79c-18,5.28-36,10.44-54,15.88-3.45,1-4.71.57-5.82-3.06q-20.6-67.63-41.54-135.17c-1.85-6-1.86-6,4.4-7.79,35.5-9.89,71-19.69,106.48-29.77,4.17-1.19,5.53,0,6.76,3.62,2.69,8,5.51,16,8.76,23.84,1.55,3.73.34,4.69-3,5.75-20.24,6.48-40.38,13.27-60.63,19.69-3.63,1.15-4.39,2.37-2.7,5.77a54.54,54.54,0,0,1,3.61,9.8c.85,3.05,2.21,3.28,5,2.24,17.26-6.45,34.64-12.59,51.84-19.2,3.84-1.47,5-.54,6.22,3q4.56,13.44,9.79,26.66c1.26,3.19.44,4.17-2.63,5.09-18.11,5.46-36.14,11.22-54.26,16.64-3.48,1-4.6,2.17-3.15,5.81a86.09,86.09,0,0,1,4,13.34c.75,3.37,2.05,3.71,5.11,2.65,18.83-6.49,37.76-12.7,56.57-19.25,3.83-1.34,5.34-.74,6.46,3.3,2.78,10.07,6.07,20,9.15,30C662.2,297.7,662.48,298.47,662.7,299.12Z" transform="translate(-104.27 -87.5)"/><path class="cls-3" d="M512.09,1085.89c2.46,1.3,5.88-2,7.86,1.63,16.39,2.8,29.93,11,40.95,23,41.16,44.92,19.1,116.34-40.11,130.39-46.3,11-92.51-23.19-96.06-70.39-3.6-47.76,35-86.44,79.91-85C507.13,1085.62,509.61,1085.77,512.09,1085.89Z" transform="translate(-104.27 -87.5)"/><path class="cls-3" d="M942.64,1090.59c2-.38,2.52,1,3.23,2.1,4.09,6.07,8,12.26,12.26,18.21,2,2.74,1,3.84-1.49,5.22-15.58,8.56-31,17.34-46.69,25.8-3,1.64-3.64,3-2.05,6a134.25,134.25,0,0,1,6.18,13.6c1.07,2.76,2.23,3,4.74,1.74,12.68-6.21,25.49-12.16,38.14-18.42,2.73-1.36,3.95-1.09,5.24,1.71,3.13,6.79,6.39,13.53,9.94,20.11,1.57,2.93.56,3.89-2,5.08-13.08,6.15-26,12.54-39.16,18.64-3.3,1.53-4.22,2.82-2,6.18,3.73,5.69,7.09,11.64,10.4,17.6,1.45,2.62,2.58,3.49,5.71,1.93,15.76-7.85,31.74-15.28,47.51-23.12,3.13-1.56,4.4-1.17,5.95,1.89,3.59,7.12,7.45,14.11,11.45,21,1.49,2.57.88,3.54-1.64,4.71q-50,23.21-99.81,46.64c-2.86,1.35-3.6.39-4.58-2q-25.17-61.85-50.51-123.63c-1.2-2.92-1.19-4.52,2.07-6.18,27.84-14.19,55.56-28.58,83.33-42.91C940.18,1091.79,941.53,1091.14,942.64,1090.59Z" transform="translate(-104.27 -87.5)"/><path class="cls-3" d="M1136.24,1122.55c-.92.86-1.59,1.55-2.33,2.17q-40.74,34.47-81.47,69c-2.65,2.26-3.92,1.61-5.83-.83q-40.27-51.48-80.79-102.78c-2.32-2.93-1.94-4.43.59-6.82q33.58-31.63,66.91-63.57c2.67-2.56,4.18-2,6.46.09,5.35,5,10.7,10,16.36,14.63,2.9,2.37,3.15,3.68.31,6.4-13.11,12.53-25.89,25.39-39,37.92-2.87,2.74-2.86,4.32.06,6.84a105.79,105.79,0,0,1,9.88,9.87c2.17,2.45,3.68,2.37,6,.18,9.75-9,19.78-17.79,29.45-26.92,3-2.85,5-3,8.08-.15,4.61,4.3,9.68,8.12,14.69,12,2.32,1.78,2.8,2.83.43,5.24-11.22,11.36-22.08,23.07-33.32,34.4-2.55,2.58-1.81,3.83.35,5.76,4.21,3.76,8.49,7.5,12.34,11.63,2.38,2.55,3.88,2,6.1,0,13.11-11.52,26.38-22.87,39.42-34.47,2.54-2.26,3.93-2.47,6.33.11,5.33,5.72,11,11.11,16.53,16.66C1134.6,1120.65,1135.32,1121.52,1136.24,1122.55Z" transform="translate(-104.27 -87.5)"/><path class="cls-3" d="M678.71,224c0-23.63.08-47.26-.08-70.89,0-3.61.72-4.83,4.6-4.77q22.69.38,45.42,0c3.77,0,4.74,1,4.72,4.72-.14,32.28,0,64.56-.18,96.84,0,4.31.95,5.62,5.45,5.55,18.13-.28,36.27,0,54.4-.21,3.82-.05,4.72,1.05,4.64,4.72-.23,11.81-.18,23.63,0,35.44,0,3-.72,4-3.86,4q-55.66-.17-111.32,0c-3.81,0-3.81-1.75-3.8-4.51C678.74,271.25,678.71,247.63,678.71,224Z" transform="translate(-104.27 -87.5)"/><path class="cls-3" d="M763.62,1295.34c-6.33,0-12.66-.09-19,0-2.58,0-3.8-.39-4-3.45-1.21-23.91-2.62-47.81-4-71.72-1.22-21.41-2.32-42.84-3.79-64.23-.26-3.87,1-4.88,4.41-5.24q39.43-4,78.87-8.28c5.45-.57,10.91-1.15,16.35-1.85,2.59-.34,3.81.13,4.12,3.19,1,9.42,2.13,18.84,3.66,28.18.64,3.94-.81,4.88-4.25,5.17-16.06,1.36-32.11,3-48.19,4.22-4.59.34-7,1.21-6.39,6.58a111.83,111.83,0,0,1,.07,16c-.11,2.89.79,3.74,3.7,3.45,16-1.61,32.13-2.84,48.14-4.68,4.89-.56,6.25.47,6.31,5.44.09,8.3,1,16.6,1.79,24.87.31,3.2-.57,4.21-3.9,4.51-15.9,1.4-31.76,3.24-47.66,4.69-3,.27-3.4,1.46-3.38,4,.1,15,0,30,.11,45,0,3.14-.66,4.4-4.08,4.25C776.28,1295.14,769.94,1295.34,763.62,1295.34Z" transform="translate(-104.27 -87.5)"/><path class="cls-3" d="M713.14,1193.62c-18.5-4-36.34-7.79-54.17-11.65-7.46-1.61-7.52-1.65-8.66,6-.73,4.93-.9,10-1.92,14.83-.77,3.63.83,4.2,3.72,4.68,12.46,2,24.87,4.39,37.34,6.33,3.58.56,4.61,1.88,4.13,5.46-1.11,8.23-2.14,16.5-2.57,24.79-.23,4.32-1.83,4.8-5.47,4.08-13.37-2.62-26.81-4.84-40.13-7.68-4.66-1-6.23.42-7.44,4.73-3.59,12.79-7.75,25.42-11.47,38.17-.89,3.06-2.1,3.85-5.21,3q-19-5-38.21-9.46c-3-.7-4.12-1.58-3.32-4.94q15.66-65.67,31-131.42c.58-2.46,1.57-3.18,4.14-2.74,28,4.77,56,9.4,84,14.14,11,1.86,10.95,1.93,11.79,13.5C711.45,1174.66,712.32,1183.88,713.14,1193.62Z" transform="translate(-104.27 -87.5)"/><path class="cls-3" d="M809.37,296c4-14.54,8.18-30.24,12.47-45.93,8-29.28,16.12-58.55,24-87.87,1.11-4.11,2.26-5.3,6.64-3.48,14.1,5.85,28.35,11.37,42.67,16.67,3.91,1.45,4.29,3.28,3.18,6.88-8.94,29.2-17.61,58.48-26.69,87.64-1.43,4.6-.17,5.85,4,7C893,281.8,910.33,287.1,927.73,292c3.09.88,3.9,1.72,3,5.06-3,11.39-5.64,22.88-8.2,34.38-.69,3.1-1.87,3.47-4.73,2.55-35.11-11.18-70.26-22.22-105.38-33.36C810.82,300.13,808,300.41,809.37,296Z" transform="translate(-104.27 -87.5)"/><path class="cls-3" d="M1265.33,815.11c-12.79-7-24.61-13.44-36.3-20.07-2.85-1.61-5-1.46-7.75.22-10.7,6.56-21.55,12.88-33.32,19.88,4-11.53,7.49-22,11.44-32.38,1.39-3.64.86-6-1.75-8.74-10.06-10.62-19.89-21.44-29.82-32.19.94-1.71,2.43-.91,3.57-.91,10.81-.08,21.63-.15,32.43,0,3.07,0,4.7-.83,6-3.78,4.57-10.68,9.47-21.22,14.26-31.81.52-1.16,1.14-2.27,2.24-4.42,2.83,8.05,5.31,15.16,7.85,22.26,2.07,5.77,2.66,13.44,6.75,16.74s11.82.82,17.94.91c7.79.12,15.58,0,24.44,0-7.16,8.22-13.27,16.28-20.46,23.2-6.29,6-7.73,11.85-5,20.14C1261.06,793.9,1262.74,804.11,1265.33,815.11Z" transform="translate(-104.27 -87.5)"/><path class="cls-3" d="M238.14,700.5c4.45,12.73,8.53,23.91,12.23,35.22,1.26,3.84,2.93,5.41,7.26,5.28,12.13-.36,24.27-.13,36.93-.13-1.22,3.1-3.62,4.91-5.44,7-6,7.09-12.07,14.18-18.45,21-2.75,2.91-3.17,5.66-2.25,9.32,3,11.88,5.78,23.82,8.86,36.6-2.16-1-3.7-1.73-5.18-2.54-9.91-5.43-19.9-10.71-29.64-16.42-3.76-2.2-6.56-2.34-10.37.08-10.22,6.49-20.78,12.46-32.15,19.2,3.75-10.74,6.78-20.71,10.76-30.28,2.21-5.32,1.12-8.59-2.68-12.51-9.68-10-18.9-20.4-29.05-31.45,12.73,0,24.45-.19,36.16.11,3.8.1,5.55-1.25,7-4.57C227.09,724.84,232.36,713.39,238.14,700.5Z" transform="translate(-104.27 -87.5)"/><path class="cls-4" d="M564.5,1066.64a198.4,198.4,0,0,1-52.7,3.92c-12.27-.71-24.05-3.52-34.25-10.74-17.77-12.56-23-30.07-19.2-50.84,4.4-24.07,17.84-42.88,34.9-59.6,27.4-26.85,60.56-44.27,95.55-58.75.9-.37,1.77-.8,3-1.37-8.53-2.12-16.73-3.84-24.73-6.21-21.39-6.34-41.9-14.63-59.77-28.38-2.09-1.61-3.41-1.59-5.51,0C486,866.17,471.43,879,458.91,894c-.11.13-.22.25-.32.39-2.13,3.07-5,5-8.32,2.39-3.5-2.7-1.86-5.75.51-8.58a229.81,229.81,0,0,1,24-24.67c6.85-6.06,14.05-11.69,22.28-17.69-3.91-3.62-7.78-6.94-11.34-10.57a143.9,143.9,0,0,1-21.37-28.13c-2.11-3.61-3.77-3.48-7-1.92a185.44,185.44,0,0,0-29.51,17.46c-3.21,2.37-6.49,2.6-8.72-.54-2.11-3-.23-5.64,2.68-7.41.28-.17.54-.39.81-.58A174.42,174.42,0,0,1,454,796c2.34-1,2.8-1.84,1.56-4.2a250.61,250.61,0,0,1-17.67-43.22c-.94-3.06-2.32-3.22-5-2.69a293.76,293.76,0,0,0-52,15.27c-.77.31-1.57.55-2.3.92-3.41,1.74-6,.63-7.28-2.67s.77-5.31,3.7-6.53a252.86,252.86,0,0,1,31.94-11q11.31-3,22.78-5.37c3.13-.65,4.14-1.33,3.33-5-9.26-41.68-4.61-82.12,12.07-121.17,2.39-5.6,2.41-9.29-.57-14.68-14.34-25.89-21.15-53.58-17.8-83.36,2.28-20.2,9.51-38.51,20.72-55.37,1.83-2.74,4.62-3.74,7.39-4.7,14.07-4.83,28.61-5.61,43.32-4.66,26,1.69,51.1,7.94,75.72,16.24a12.16,12.16,0,0,0,7.68.21c30-8.66,60.3-16,91.24-20.51,7.22-1,14.53-1.65,21.83-2,3.56-.18,5.48-1.24,7-4.68,5.9-13.62,14.07-25.64,26.46-34.27,19-13.2,42.17-12,61.51,3.14a80,80,0,0,1,11,10.15c2.43,2.79,3.79,2.79,6.64.53,19.42-15.37,40.64-27.48,64.47-34.67,12.49-3.78,25.24-6.06,38.32-5.43,11.79.56,20.7,6.54,27.47,15.91,9.28,12.86,13.13,27.8,15.88,43.06A187.4,187.4,0,0,1,956.55,465c0,2,.08,3.9,2.58,4.73,18.92,6.27,28.27,26.72,27.62,46.89-.4,12.25-4.84,23.31-9.83,34.19-1.23,2.7-1.25,4.45.75,7,13,16.54,19.5,36,24.61,56,1.68,6.59,3,13.29,4.14,20,.5,2.84,1.22,3.79,4.41,3.29,20.55-3.27,41.28-4.54,62.08-5,3.76-.08,7.08.44,7.27,4.72s-3.18,5.19-6.88,5.23a420.93,420.93,0,0,0-61.1,4.75c-2.83.44-3.44,1.18-3,4,1,7.07,1.79,14.19,2.19,21.32.18,3.16,1.15,3.81,4.15,3.68,17.6-.72,35.21-1.38,52.83-1.76,8.77-.19,17.59-1.42,26.33.64a35.67,35.67,0,0,1,18,10.07,176,176,0,0,1,22,27.7c4.45,7.12,2.74,13.25-4.78,16.7a3.67,3.67,0,0,0-2.49,3.66q-2.48,40.32-5,80.62c-2.31,36.16-4.54,72.33-7.07,108.48-.93,13.26-13,25.53-26.37,26.63q-34,2.8-68.13,4.69c-10.48.57-19.16-3.82-25.29-12.42-1.79-2.53-2.83-2.7-5.33-1q-32.37,21.51-65,42.73c-3,1.93-3.22,3.43-1.89,6.63,9.31,22.44,16.73,45.45,19.47,69.75.38,3.39-.17,6.12-4,6.64-3.45.46-5.12-1.4-5.57-4.83-6-46.08-25.81-86.84-48.86-126.31-10.22-17.51-21.57-34.3-33.47-50.72-1.86-2.55-3.43-2.68-6.52-2.33-9.46,1.05-12.74,5.68-14.62,15.16-7.46,37.61-33.33,60.49-71.32,65.26-20.4,2.57-40.56,2.31-59.86-5.54-25.77-10.49-41.35-30.36-49.75-56.29-1.14-3.51-2.48-5-6.33-5.21-7.63-.3-15.27-1-22.84-2-4.11-.54-6.17.77-7.84,4.52-9.36,21-15.82,42.9-21,65.24-8.32,36.18-13.39,72.85-16.65,109.78-.33,3.72-1.1,6.91-5.59,6.46s-4.58-3.94-4.14-7.5A41.72,41.72,0,0,0,564.5,1066.64Z" transform="translate(-104.27 -87.5)"/><path class="cls-5" d="M449.47,988.84c-10.26-10.37-18.83-21.37-27-32.65-36-49.55-61.47-103.89-74-164-6.74-32.37-8.56-65.11-6.73-98.13,2.94-52.8,13.84-103.61,36.54-151.58,9.1-19.24,19.88-37.48,33.52-53.91,1-1.22,1.68-2.86,3.76-3.4-2,16-3.3,31.79-2.31,47.7,1.31,21,4.78,41.46,14.63,60.39a9.9,9.9,0,0,0,1.15,2.19c6.32,6.78,5.32,13.59,2.26,21.95a246.74,246.74,0,0,0-15,83.78A138.81,138.81,0,0,0,417,715.6c.29,3-.14,4.18-3.6,4.62-11.68,1.49-23.12,4.19-33.64,9.73-9.43,5-16.95,11.58-19.33,22.65-2.67,12.48,3.94,21.34,16.65,22.29,15.59,1.17,30.27-2.85,44.65-8.08,3.69-1.34,5.45-.39,7.12,2.55,2.53,4.48,4.87,9,6.08,14.07.69,2.92.4,4.55-3,5.76a48.21,48.21,0,0,0-19.09,12.25A23.68,23.68,0,0,0,406,815.5c-1.09,10.86,6.14,18.51,17.92,19.31a50.62,50.62,0,0,0,29.14-6.58c2.2-1.25,3.6-1.4,5.6.29a38.33,38.33,0,0,1,10.39,13.17c1.44,3.1.89,5-1.95,7A106.07,106.07,0,0,0,443.28,872c-4.56,6.23-8.11,12.9-7.53,21.08.71,9.86,7.79,15.93,17.69,15.12,13.66-1.13,24.07-8.76,34.13-17a96.79,96.79,0,0,0,13.32-12.76c1.85-2.23,3.57-3,6.81-2,12.94,4,25.92,8,39.23,10.67,1.62.33,4.24.15,4.55,2.29s-2.24,2.54-3.75,3.38c-28.63,15.94-55.1,34.63-76.43,59.87A124.24,124.24,0,0,0,449.47,988.84Z" transform="translate(-104.27 -87.5)"/><path class="cls-5" d="M891.7,361.48c-10,3.57-20,6.26-29.78,9.76-15,5.37-29.73,11.33-42.37,21.33-2.25,1.79-3.16.35-4.53-.79-13.44-11.18-28.91-17.66-46.09-20.77-27.38-5-48.77,4.53-65.81,25.73a179.4,179.4,0,0,0-17.41,26.62c-1.44,2.65-3.28,3.49-6.22,3.88-32.38,4.34-64.44,10.09-94.45,23.84a6.28,6.28,0,0,1-4.68.34,568.26,568.26,0,0,0-71.42-14.94A240.89,240.89,0,0,0,469.68,434c-1.58,0-3.22.58-5.52-.68,47.73-45.39,103.93-74.41,166.85-90.67C719.87,319.65,806.72,327.64,891.7,361.48Z" transform="translate(-104.27 -87.5)"/><path class="cls-5" d="M1127,677.36c-24.26-18.49-24.26-18.49-39.9-19.76,1.49-5.06,3.94-9.75,4.47-15.1,1.08-10.82-3.32-18.52-13.61-22.63-12.58-5-25.72-4.26-38.82-3.48a78,78,0,0,0-13.31,1.67c-4.19,1-4.82-1.16-5.37-4.31-3.39-19.29-9.46-37.52-21.75-53.14-1.71-2.16-.64-3.49.12-5.27,9-21.09,12.09-42.62,4.54-64.84-5.21-15.33-15.34-27-28-36.56-1.5-1.14-2.76-2.1-2.87-4.26-.88-18.88-4.89-37-14.39-54.09C1015.83,441.1,1108.25,546.71,1127,677.36Z" transform="translate(-104.27 -87.5)"/><path class="cls-5" d="M970.09,1029.52c-3.47-12.52-6.57-24.13-10-35.64-.62-2.11.1-3.07,1.33-4.25a92.51,92.51,0,0,1,28.23-18.29c3.36-1.45,6.82-.39,10.27.22,8,1.41,15.48,4.17,23.44,7.52C1006.41,996.87,988.43,1012.63,970.09,1029.52Z" transform="translate(-104.27 -87.5)"/><path class="cls-6" d="M997.21,328.06c.95-14.09,6.33-27.07,18.47-36.61,9.62-7.56,20.42-7.09,31.18-3.21,7,2.54,8.78,9,9.43,15.73a38.71,38.71,0,0,1-4.14,21.22,65.85,65.85,0,0,1-16.93,21.88c-8.5,7.07-17.79,7.7-27.49,3.45C998.4,346.44,997.63,337.8,997.21,328.06Z" transform="translate(-104.27 -87.5)"/><path class="cls-1" d="M539.28,1156.67c-.46,15.76-4.83,30.14-17.26,40.87-11.9,10.29-25.89,11.31-40.4,7.19-8.31-2.35-12.07-9.13-13.44-17.08-3.28-19,.85-36.42,13-51.51,12.43-15.38,31.15-14.92,44.87-8.39,8.42,4,11.54,12,12.72,20.79C539.17,1151.17,539.13,1153.86,539.28,1156.67Z" transform="translate(-104.27 -87.5)"/><path class="cls-2" d="M970,564.64c5.35,6.28,9,13.38,12.12,20.67,7.1,16.37,11.46,33.54,14.57,51.07.46,2.58,0,3.29-2.6,3.89-11.64,2.71-23.17,5.84-33.8,11.52a49.68,49.68,0,0,0-6.73,4.22c-2.24,1.72-3,4.07-1.2,6.58s4.22,3.19,6.92,1.37c10.24-6.88,21.89-10.09,33.6-13.3,4.48-1.23,6.59-1.06,6.66,4.42.08,5.79,1.06,11.57,1.82,17.34.34,2.6-.19,4.05-3.14,4.15-10.84.37-19.11,5.89-26.49,13.28A156.63,156.63,0,0,0,949,719.43c-4.61,7.58-1.92,14.62,6.64,17,1.83.5,2.62.9,3,3,2.1,13.28,4.43,26.53,6.74,39.78.41,2.31-.28,3.52-2.51,4.55-6,2.76-11.93,5.77-17.81,8.83-17.76,9.24-27.34,24.84-32.27,43.41-1.72,6.48-4.89,10-10.66,12.83-35.35,17.31-72.7,27.82-111.45,33.92-32.19,5.06-64.57,5.81-97,4.62-32.05-1.18-64.12-2.18-95.83-7.66-28.58-4.94-55.77-13.51-80-30-3.26-2.21-4-3.38,0-5.67,7.67-4.31,15.25-8.77,23.24-12.45,3.43-1.58,5.16-4.05,3.36-7.5s-4.82-2.81-7.82-1.42a223.67,223.67,0,0,0-27.83,15.48c-2.32,1.51-3.76,1.79-6-.22a179.19,179.19,0,0,1-29.61-35.54c-1.68-2.62-.75-3.17,1.72-3.93,9.07-2.81,18.23-5.11,27.74-5.57,3.73-.18,6.44-1.54,6.12-5.48s-3.51-4.88-7-4.54a124.62,124.62,0,0,0-31.55,6.84c-3.06,1.14-4.16.33-5.54-2.36a296.82,296.82,0,0,1-16.71-40.39c-.9-2.66-.76-3.69,2.44-4.06,14.21-1.63,28.43-3,42.75-2.88,3.35,0,6.65,0,6.83-4.49s-3.11-5.36-6.7-5.36a288.54,288.54,0,0,0-45.21,3.3c-3.25.52-4.37-.33-5-3.3q-12.87-59.29,10.88-115.08c.2-.46.37-.93.61-1.36,2.08-3.75,5.91-7.56,5.78-11.23s-4.41-7.15-6.45-10.94c-17.77-33-23.86-67.37-10.83-103.63,1.51-4.2,3.87-8.1,5.3-12.32,4.34-12.81,14.25-16.42,26.52-17.55,25.27-2.33,49.64,2.26,73.81,8.68,8.49,2.25,16.85,5,25.2,7.74a12.32,12.32,0,0,0,7.71.09c32.77-9.25,65.74-17.63,99.61-21.91,4.44-.57,10.42-2.64,13-.61,3,2.34-.86,7.89-1.73,12-4.21,19.79-5.13,39.54.1,59.26,7.56,28.51,29.4,39.37,55.9,36.36,16.27-1.84,31.07-8,45.09-16.22,2.2-1.29,3.29-1.59,5,1,12.32,18.84,29.87,26.64,52.08,23.49,3.3-.47,4.27.63,5.57,3,8.54,15.76,20.26,28.21,38.08,32.94,24.73,6.55,45-1.68,61.85-20.14C961.38,578,965.7,571.49,970,564.64Z" transform="translate(-104.27 -87.5)"/><path class="cls-2" d="M1043,733.24c23.73-1,47.47-2,71.19-3.07,3.35-.16,3.31,1.49,3.15,3.88-1.16,18.4-2.24,36.8-3.41,55.2q-2.25,35.31-4.6,70.61c-1.3,19.88-2.49,39.77-3.91,59.65a20.29,20.29,0,0,1-18.92,19.17q-32.78,2.54-65.6,4.61a19.37,19.37,0,0,1-20.42-16c-4.79-27.13-9.31-54.31-13.86-81.48-5.89-35.2-11.67-70.42-17.66-105.6-.56-3.26-.26-4.16,3.34-4.27,23.57-.75,47.13-1.78,70.7-2.71Z" transform="translate(-104.27 -87.5)"/><path class="cls-7" d="M744.66,549.91c-26.14,0-39.71-11.81-43.72-35.29-5.21-30.55.62-59.28,16.6-85.71,8.11-13.42,19.25-23.34,35.83-25.08,8.81-.93,16.79,1.53,24.21,6.05,13.58,8.27,23,20.51,31.43,33.57a237.32,237.32,0,0,1,12.89,23.06c1.28,2.57,1.36,3.74-1.69,5.07-7.33,3.21-7.41,3.54-11.48-3-9.61-15.39-26.63-16.56-39.52-11.15-12.16,5.11-15.61,16.15-16.48,28.09-1.19,16.58,5.27,26.3,21.43,33.11a62.22,62.22,0,0,0,14.32,4.26c4.1.65,2.63,4,3.57,6.16.75,1.72.58,3.07-1.29,4.18C775.12,542.47,758.77,549.51,744.66,549.91Z" transform="translate(-104.27 -87.5)"/><path class="cls-2" d="M938.88,466.8c-20.31.68-38.18,6.15-54.33,16.89-2.25,1.5-3.5,1.41-5.35-.56-11.26-12.05-25.22-17.38-41.64-16.08-2.76.22-4.41-.26-5.72-3.14a192.78,192.78,0,0,0-19.66-34c-1.62-2.22-1.64-3.4.64-5.15C836,407.06,861,393,890.17,387.8a80.57,80.57,0,0,1,19.35-1.43c9,.59,15.48,5.52,20.4,12.69,7.69,11.2,11,24.06,13.31,37.18,1.45,8.34,2,16.82,3.14,25.21.53,4-.06,6.49-5,5.38A8.41,8.41,0,0,0,938.88,466.8Z" transform="translate(-104.27 -87.5)"/><path class="cls-2" d="M520.61,1060.81a87.46,87.46,0,0,1-19.3-2c-27.35-6.52-38.92-25.62-32-52.89,5.29-20.74,17.9-36.76,33-51.16,7.48-7.12,7.52-7,15.61-.92,17.46,13.24,35,26.32,53.58,38,2.15,1.35,2.77,2.69,2.33,5.21-3.21,18.31-5.72,36.73-7.66,55.21-.3,2.86-1.4,3.81-4.12,4.43C549.57,1059.56,536.87,1060.58,520.61,1060.81Z" transform="translate(-104.27 -87.5)"/><path class="cls-2" d="M657.87,896c24.11,1,47.69,2.07,71.3,1.87a448.09,448.09,0,0,0,87.57-9.56c3.72-.77,5.3-1.17,4.23,3.77-8,37.28-31.56,57.59-69.92,60.7-18,1.47-35.53.43-52.13-7.2C677.45,935.7,665.22,918.09,657.87,896Z" transform="translate(-104.27 -87.5)"/><path class="cls-2" d="M859,877.17a319.64,319.64,0,0,0,53.77-22.67c2.57-1.39,3.29.42,4.35,1.7q20.37,24.54,40.68,49.13c7.09,8.58,14.12,17.2,21.34,25.67,1.73,2,1.75,3-.54,4.51q-29.4,19.17-58.67,38.52c-1.6,1.05-2.48,1.65-3.61-.75-15.76-33.58-35.35-64.87-57-94.93A4.73,4.73,0,0,1,859,877.17Z" transform="translate(-104.27 -87.5)"/><path class="cls-7" d="M939.29,476.94c25.82-.64,42.2,19,36.54,45.46-5,23.35-15.71,44.17-33.61,60.53-23.64,21.6-59.66,16.83-77.09-16.76-.89-1.73-.47-2.42,1-3.55,6.24-4.64,11.19-7.72,19.92-2.26,12.15,7.62,29.07,3.15,36.65-6.85,8.44-11.14,8.08-31.71-1-42-6.68-7.61-15.54-8.09-24.79-7-2.33.28-5.54,2.48-6.34-1.93-.71-4-5.94-7.82,1.31-11.83C906.81,482.52,922.28,477.31,939.29,476.94Z" transform="translate(-104.27 -87.5)"/><path class="cls-2" d="M1041.62,723.07q-40.83,1.7-81.67,3.43c-2.33.09-3.23-.37-1.7-2.73,7.2-11.22,14.9-22,25.15-30.75,5.44-4.65,11.8-6.55,18.8-6.75,27.25-.8,54.5-1.54,81.75-2.42,8.66-.28,16,2.48,21.93,8.72a174.84,174.84,0,0,1,18.49,22.84c.78,1.15,2.45,2.33,1.61,3.85-.67,1.23-2.41.56-3.67.61q-40.33,1.67-80.69,3.26Z" transform="translate(-104.27 -87.5)"/><path class="cls-7" d="M842.06,476.94a40.85,40.85,0,0,1,40.64,40.63c.07,22.49-18.45,41.18-40.76,41.13a41.4,41.4,0,0,1-41-41C800.88,495.39,819.56,476.87,842.06,476.94Z" transform="translate(-104.27 -87.5)"/><path class="cls-2" d="M967.24,792.87c8.31,42.4,13.72,84.67,17.71,127.26-1.31.39-1.66-1-2.26-1.71q-28.1-34.65-56.18-69.31c-1.77-2.16-2-4.39-1.75-7,1.06-13.38,7.75-23.77,17.29-32.62A98.55,98.55,0,0,1,967.24,792.87Z" transform="translate(-104.27 -87.5)"/><path class="cls-2" d="M576,982.64c-19.85-12.71-38.68-26.79-57.6-41.31,13.81-11.76,29.12-20.05,44.81-27.66,10.58-5.14,21.42-9.74,32.18-14.49,1.05-.46,2.23-1.76,3.58-.58s.38,2.37-.11,3.58c-10.22,25.7-16.84,52.4-22.18,79.46C576.63,981.9,576.38,982.11,576,982.64Z" transform="translate(-104.27 -87.5)"/><path class="cls-7" d="M762.52,488.69c.39-2.78.63-5.6,1.22-8.35,1.62-7.51,5.41-13.29,13.49-14.86,8.51-1.65,16.28-.57,21.74,7.2.77,1.09,1.51,2.19,2.26,3.28,2.71,4,3.59,7.25-.34,11.67-5.45,6.13-8.36,13.92-9.34,22.18-.32,2.66-1,3.29-3.74,2.53-5.45-1.55-10.8-3.23-15.64-6.27C765.8,502.05,761.94,496.66,762.52,488.69Z" transform="translate(-104.27 -87.5)"/><path class="cls-7" d="M900.67,553.25a25.07,25.07,0,0,1-7.58-.8c-8.65-2.61-9.33-4.05-5.5-11.88,3-6.19,5.16-12.69,5.07-19.61-.06-4.14,1.26-5.75,5.47-6.34,10.41-1.46,16.17,1.1,18.91,9.24,3.89,11.58.76,23.3-7.37,27.55A17.46,17.46,0,0,1,900.67,553.25Z" transform="translate(-104.27 -87.5)"/><path class="cls-8" d="M893.51,707.71c.27,9.53-2.21,17.61-8.55,24.15-8.64,8.92-21.4,8.11-29.06-1.64-9.08-11.54-9.82-29.22-1.76-41.56,8.92-13.66,24.91-13.81,34-.22A30.9,30.9,0,0,1,893.51,707.71Z" transform="translate(-104.27 -87.5)"/><path class="cls-8" d="M565.56,745.18c-.12-8,1.69-15.43,6.28-22.07,7.94-11.49,21-11.74,29.31-.58,9.86,13.29,8.93,36.33-1.9,47.57-7.93,8.23-18.55,7.94-25.92-.88C567.55,762.29,565.46,754.06,565.56,745.18Z" transform="translate(-104.27 -87.5)"/><path class="cls-9" d="M740.34,801.6c-9.59-.25-18.26-2.63-25.78-8.45-13.36-10.36-13.65-28.33-.66-39.09,13.86-11.49,37.37-11.94,51.59-1,15,11.53,14.35,30.84-1.35,41.51C756.89,799.49,748.76,801.41,740.34,801.6Z" transform="translate(-104.27 -87.5)"/><path class="cls-5" d="M1047.64,764.86c12.52.18,24.34,2.57,34.38,10.74,7.53,6.11,11.76,14.21,14.09,23.41.33,1.31,1.16,3.16-.39,4.15s-2.19-1-3.26-1.58c-1.87-1.07-3.63-2.34-5.54-3.32-3.32-1.72-6.82-3.54-9.43,1-2.84,5-1.73,10,2.8,12.48,2.9,1.57,6,2.72,9,4.27a15.59,15.59,0,0,1,7,20.49c-1.36,2.81-2.87,4.39-6,1.74s-7.13-4.2-11.1-5.37c-3.15-.93-6.18-.29-7.57,3a5.85,5.85,0,0,0,2.46,7.8,44.46,44.46,0,0,1,7.82,6.93c3.92,4,3.87,7.21-.23,11-4.34,4.06-9.66,6.38-15.28,8a70.37,70.37,0,0,1-39.21,0,30.68,30.68,0,0,1-5.58-2.08c-17-8.73-13.43-13.58-2.7-22.14.78-.63,1.6-1.19,2.39-1.8a5.94,5.94,0,0,0-5.52-10.35c-4.09,1.39-8.1,2.94-11.53,5.61-2.55,2-4.13,1.1-5.55-1.38-3.93-6.91-1.08-16.55,6.28-20.63,3-1.69,6.29-3,9.33-4.65,5-2.73,5.91-10,1.88-14-1.6-1.61-3.41-1.71-5.48-.85a43.81,43.81,0,0,0-8.24,4.55c-1.11.77-2.15,2.7-3.74,1.53-1.12-.83-.48-2.59-.18-3.8,3.43-13.57,10.79-24.05,23.91-29.89A59.59,59.59,0,0,1,1047.64,764.86Z" transform="translate(-104.27 -87.5)"/><path class="cls-2" d="M740.43,755.14c8.28.5,16,2.5,21.88,9,5.21,5.72,5.24,12.62.11,18.35-10.42,11.63-32.89,12-43.64.72-5.84-6.13-5.81-13.91.26-19.9C724.92,757.46,732.36,755.53,740.43,755.14Z" transform="translate(-104.27 -87.5)"/></svg>